<?xml version="1.0" standalone="no"?>
<!DOCTYPE svg PUBLIC "-//W3C//DTD SVG 20010904//EN"
 "http://www.w3.org/TR/2001/REC-SVG-20010904/DTD/svg10.dtd">
<svg version="1.0" xmlns="http://www.w3.org/2000/svg"
 width="800.000000pt" height="800.000000pt" viewBox="0 0 800.000000 800.000000"
 preserveAspectRatio="xMidYMid meet">
<metadata>
Created by potrace 1.14, written by Peter Selinger 2001-2017
</metadata>
<g transform="translate(0.000000,800.000000) scale(0.100000,-0.100000)"
fill="#000000" stroke="none">
<path d="M3904 5684 c-63 -31 -79 -58 -79 -136 0 -69 1 -71 38 -103 28 -24 37
-40 37 -64 0 -17 -3 -31 -7 -31 -5 0 -91 9 -193 21 l-185 21 -255 -97 c-319
-120 -310 -113 -310 -260 0 -83 -5 -118 -22 -167 -32 -90 -33 -241 0 -315 20
-48 22 -66 22 -253 l0 -202 34 -34 c19 -19 41 -34 49 -34 26 0 781 -91 785
-94 1 -2 -74 -32 -167 -67 l-171 -63 0 -41 0 -42 -57 -12 c-119 -24 -227 -129
-248 -244 -6 -31 -12 -38 -41 -46 -18 -5 -47 -19 -63 -30 -37 -27 -81 -114
-81 -162 l0 -36 55 -6 c76 -8 135 15 135 53 0 37 22 55 50 40 26 -14 60 -68
60 -96 0 -19 8 -23 54 -28 44 -6 64 -3 103 14 46 19 53 20 158 7 l110 -12 3
-68 c3 -63 0 -72 -33 -126 -38 -61 -85 -193 -85 -238 0 -18 -14 -38 -46 -67
-74 -66 -94 -124 -52 -147 28 -15 265 -5 358 15 65 14 85 13 75 -4 -12 -19 16
-49 60 -66 73 -27 225 -4 278 44 18 16 19 26 13 127 -8 136 -28 223 -66 291
-27 47 -30 60 -30 142 l0 91 103 39 c56 22 112 43 125 46 21 7 22 12 22 117 0
60 3 109 7 109 3 0 25 -11 48 -25 47 -27 111 -113 121 -161 5 -29 3 -31 -35
-43 -57 -17 -107 -70 -126 -133 -19 -66 -19 -75 3 -82 34 -10 98 -9 133 3 31
10 38 18 43 46 8 42 17 48 49 34 29 -13 57 -58 57 -92 0 -20 6 -27 28 -31 50
-11 87 -10 125 3 33 11 37 16 37 45 0 84 -75 202 -145 227 -29 11 -35 19 -45
61 -26 105 -134 226 -237 264 -26 9 -51 20 -55 23 -4 3 -8 67 -9 141 l-1 134
242 91 c301 113 290 103 290 255 0 90 4 119 22 162 18 43 22 73 22 163 1 95
-2 116 -21 153 -22 40 -23 54 -23 250 0 219 -3 237 -50 262 -10 5 -211 32
-447 60 -235 28 -434 52 -440 55 -28 10 -14 67 28 112 41 44 41 46 37 109 -4
71 -27 106 -85 130 -42 18 -70 17 -109 -2z m100 -28 c46 -19 66 -52 66 -108 0
-64 -29 -98 -91 -105 -83 -9 -129 31 -129 115 0 46 22 80 64 98 40 17 49 17
90 0z m-14 -300 c0 -47 -17 -70 -44 -60 -12 4 -16 19 -16 55 0 48 1 49 30 49
29 0 30 -2 30 -44z m-270 -449 l525 -62 3 -374 2 -374 -37 6 c-21 3 -256 31
-523 62 -267 31 -495 58 -507 61 l-23 4 0 370 c0 346 1 370 18 370 9 -1 253
-29 542 -63z m1099 -83 c33 -25 63 -49 66 -54 3 -4 -7 -15 -21 -25 -14 -9 -40
-47 -57 -83 -30 -63 -32 -74 -32 -177 0 -102 2 -113 28 -157 l28 -48 -67 -30
c-83 -38 -109 -38 -143 -1 -58 62 -79 241 -46 389 28 120 107 232 165 232 10
0 45 -21 79 -46z m-1869 -126 c0 -64 -3 -88 -10 -78 -18 27 -12 170 7 170 2 0
3 -42 3 -92z m1973 25 c-7 -2 -19 -2 -25 0 -7 3 -2 5 12 5 14 0 19 -2 13 -5z
m24 -60 c28 -43 24 -183 -7 -246 -13 -27 -34 -54 -47 -60 -39 -17 -45 2 -21
63 18 44 22 76 23 163 0 95 2 107 17 107 10 0 26 -12 35 -27z m-72 -343 c3 -5
-1 -10 -9 -10 -8 0 -18 5 -21 10 -3 6 1 10 9 10 8 0 18 -4 21 -10z m-896 -396
c30 -6 32 -9 29 -43 -3 -36 -4 -36 -48 -36 l-45 0 -3 43 c-3 46 2 49 67 36z
m-493 -258 c8 -34 1 -43 -43 -51 -75 -14 -141 -74 -168 -152 -11 -32 -18 -38
-42 -38 -26 0 -28 3 -25 33 8 107 134 219 259 231 7 0 15 -10 19 -23z m289 -7
c121 -14 152 -25 170 -59 39 -75 4 -140 -75 -140 -47 0 -88 19 -77 37 3 5 30
8 61 5 48 -4 55 -2 66 18 16 30 4 69 -23 79 -12 5 -74 14 -136 21 -107 12
-115 12 -128 -5 -32 -45 2 -95 65 -95 43 0 76 -19 64 -37 -6 -9 -22 -10 -62
-4 -42 7 -60 16 -82 40 -42 47 -36 125 12 144 23 8 47 8 145 -4z m-298 -245
l3 -169 -24 48 c-30 60 -69 103 -118 128 -43 22 -43 21 -24 57 30 57 113 117
151 108 6 -2 11 -69 12 -172z m973 159 c120 -28 256 -174 263 -280 2 -36 0
-38 -27 -38 -24 0 -30 6 -43 45 -43 126 -138 202 -277 219 -49 6 -51 7 -54 39
l-3 33 58 -6 c32 -3 69 -9 83 -12z m-777 -227 c8 -21 -16 -39 -31 -24 -7 7
-12 18 -12 25 0 18 36 17 43 -1z m252 -41 c0 -28 -29 -25 -33 3 -3 19 0 23 15
20 10 -2 18 -12 18 -23z m-107 -157 c15 -15 16 -134 1 -143 -5 -4 -21 -4 -35
-1 -23 6 -24 10 -24 81 0 72 1 75 23 75 13 0 28 -5 35 -12z m172 -16 l65 -7 3
-68 c3 -62 0 -72 -32 -125 -33 -53 -64 -150 -67 -203 -1 -13 -7 11 -15 54 -17
101 -31 145 -60 184 -20 27 -24 43 -24 107 l0 75 33 -5 c17 -3 61 -8 97 -12z
m168 -69 l-3 -88 -30 0 -30 0 0 75 c0 69 2 75 25 87 14 7 29 13 33 13 4 0 6
-39 5 -87z"/>
<path d="M3322 4689 c-83 -31 -60 -181 31 -203 31 -8 42 -6 65 11 31 23 47 70
38 107 -15 62 -82 104 -134 85z"/>
<path d="M4043 4595 c-53 -37 -48 -136 9 -178 66 -49 138 -7 138 80 0 38 -5
50 -34 79 -38 38 -77 44 -113 19z"/>
<path d="M3597 4574 c-23 -24 20 -95 81 -131 82 -50 212 -8 212 69 0 35 -19
36 -50 3 -56 -60 -134 -50 -200 26 -19 22 -39 37 -43 33z"/>
</g>
</svg>
